<?xml version="1.0" encoding="UTF-8"?><svg id="Calque_1" xmlns="http://www.w3.org/2000/svg" viewBox="0 0 300 300"><path d="M186.18,212.67c1.44,2.02,2.77,3.01,2.79,4.04,.24,11.8,.57,23.61,.27,35.4-.14,5.58-6.97,11.63-14.56,12.35-11.06,1.05-22.35,2.25-33.32,1.13-18.16-1.87-17.88-6.94-19.67-22.03-.78-6.58-.28-13.3-.43-19.96-.12-5.41-.62-10.5-6.25-13.64-2.6-1.45-5.32-3.85-2.75-7.07-1.89-.63-3.65-1.08-5.22-1.88-.22-.11,.16-2.3,.83-2.92,.48-.44,1.9,.14,3.44,.33,.43-2.65,.9-5.55,1.59-9.82-2.85,3.57-4.69,5.87-6.77,8.47-7.27-9.22-11.77-18.6-13.58-28.99-3.43-19.74-1.5-38.61,12.3-54.36,7.06-8.06,14.24-16.48,22.87-22.6,18.41-13.05,38.49-14.65,58.78-3.78,3.59,1.93,6.87,4.79,9.65,7.82,14.41,15.7,23.67,33.65,22.79,55.62-.59,14.58-4.72,28.2-12.83,40.34-4.01,5.99-8.87,11.44-13.66,16.85-1.89,2.14-4.64,3.52-6.25,4.7Zm-71.32-23.17c2.85-.57,5.33,2.63,6.07,7.96,2.59,.96,4.97,1.85,8.82,3.27-.92-3.66-1.23-6.78-2.48-9.47-2.4-5.19-5.18-10.12-2.03-15.99,.28-.51-.12-1.46-.34-2.16-.45-1.46-1.74-3.15-1.35-4.29,1.45-4.26,3.53-8.29,5.2-12.48,2.99-7.49,12.42-12.22,9.52-22.23-.04-.15-.2-.26-.24-.3l-4.85-.7,2.5-6.22-3.79,2.17q-2.55-7.98,5.04-8.16c.74-1.58,1.49-3.19,2.49-5.32,3.29,3.83,10.26,2.68,10.32,9.71,2.04-1.2,3.91-3.26,5.63-3.14,4.48,.32,9.02,1.22,13.3,2.61,3.73,1.21,1.73,4.36,1.27,6.84-.12,.64-.41,1.52-.12,1.93,3.37,4.81,2.79,10.46,3.46,15.84,.04,.36-.27,.77-.48,1.33l-1.54-3.27-.97,.28c1.2,15.21,2.41,30.42,3.61,45.62,13.82-1,12.13,2.24,18.01-9.32,1.28-2.52,2.92-4.85,4.21-7.37,4.37-8.56,6.55-17.67,6.79-27.28,.34-13.89-4.39-25.74-12.75-36.85-10.34-13.75-25.28-19.58-41.59-14.23-18.07,5.92-29.12,19.62-37.98,35.45-1.75,3.12-3.22,6.86-3.31,10.35-.37,13.91-1.04,27.98,7.18,40.46,.74,1.12,.28,3.02,.4,4.92Zm41.69-45.25c-5.16,6.55-9.55,12.02-13.8,17.59-.77,1.01-1.38,2.41-1.43,3.66-.38,10.26,2.6,19.88,6.6,29.09,1.9,4.37,6.22,1.04,9.38,1.01,.75,0,2.13-2.9,2.07-4.42-.15-3.71-1.57-7.44-1.34-11.08,.19-2.99,2.01-5.88,3.1-8.81l-.86-.32c-.7,1.19-1.4,2.38-2.86,4.87,0-6.68-.02-11.77,0-16.87,0-2-1.9-4.71,1.92-5.45,.17-.03,.07-1.44,.09-2.21l-2.51,.2c-.1-1.96-.2-3.87-.37-7.26Zm17.59,100.82c-12.44,.54-24.29,1.05-36.36,1.58,3.48,6.27,31.36,5.12,36.36-1.58Zm-37.29-30.47c-.32,.44-.64,.88-.96,1.32,1.23,.59,2.46,1.66,3.68,1.66,1.75,0,3.48-1.03,5.26-1.22,9.15-1,18.33-1.85,27.48-2.83,1.19-.13,2.34-.74,3.5-1.13-.12-.36-.24-.73-.36-1.09l-38.61,3.29Zm.45,15.81l.1,2.52c12.15,.85,23.97-2.09,35.83-4.63-11.98,.7-23.95,1.4-35.93,2.11Z"/><path d="M69.55,57c3.5-2.54,6.78-4.93,11.41-8.3,.73,1.31,1.38,2.65,2.16,3.89,5.21,8.28,10.39,16.56,15.7,24.78,1.3,2.01,3.33,3.59,4.43,5.67,.95,1.8,1.05,4.06,1.53,6.11l-1.33,.29c-.55-.49-1.1-.98-1.81-1.61-1.06,1.88-2.08,3.69-3.34,5.93-.85-.9-1.46-1.54-2.25-2.38-.59,1.11-1.16,2.21-2.07,3.94-8.14-12.77-16.04-25.16-24.43-38.32Z"/><path d="M229.66,45.69c-5.46,11.91-11.77,23.25-21.68,33.12v-8.57c-1.59,2.24-2.66,3.74-4.51,6.34-.93-2.97-2.79-5.68-2.1-7.27,2.23-5.11,4.87-10.29,9.42-12.31,1.21-3.71,2.27-6.99,3.47-10.65,2.09,.79,3.73,1.41,4.92,1.86,2.53-1.98,4.86-3.8,7.77-6.07,1.01,1.3,1.92,2.47,2.83,3.64l-.11-.09Z"/><path d="M125.45,62.47c-1.22-7.55-2.33-14.4-3.43-21.25,.69,.16,1.39,.32,2.08,.48,2.24-2.17,4.48-4.34,7.31-7.06,2.59,8.47,4.98,16.31,7.5,24.57-4.43,1.08-8.56,2.08-13.45,3.27Z"/><path d="M173.51,56.32c-4.17-.72-7.91-1.37-11.65-2.02-.34-5.01-.68-9.87-1.1-16.04,5.4,1.18,11.76,.71,14,3.52,2.91,3.65,1.56,9.8-1.25,14.54Z"/><path d="M229.77,45.79c-.57-2.18-1.14-4.37-2-7.7-1.8,2.12-3.06,3.6-4.08,4.8-1.45-.88-3.21-1.95-5.27-3.19,.72-1.62,1.63-3.69,2.53-5.74,9.08,3.48,10.77,5.81,8.7,11.72l.11,.1Z"/></svg>