<?xml version="1.0" encoding="UTF-8"?><svg id="Calque_1" xmlns="http://www.w3.org/2000/svg" viewBox="0 0 300 300"><path d="M141.64,157.14c-9.02-1.04-17.53-2.09-26.05-2.98-6.12-.64-8.67-6.17-12.98-9.28-.4-.29-.2-1.95,.2-2.74,3.78-7.46,7.39-15.02,11.56-22.26,6.66-11.54,13.61-22.92,20.62-34.26,7.86-12.7,15.87-25.31,23.91-37.89,2.46-3.85,5.12-7.62,8-11.16,.91-1.12,2.85-1.39,4.12-1.96,9.38,5.92,6.58,14.28,3.11,21.13-5.06,9.98-5.25,20.95-8.55,31.2-1.21,3.77-2.14,7.64-3.43,11.39-.25,.73-1.57,1.08-2.44,1.63,2.37,7.74-3.18,14.14-4.2,22.04,16.74-1.15,33.11-6.75,49.99-4.06,1.79,3.98,3.82,7.73,5.13,11.72,.73,2.25,1.31,5.66,.15,7.22-5.88,7.98-12.41,15.48-18.58,23.25-5.34,6.73-10.07,14.01-15.84,20.34-14.4,15.78-29.13,31.28-44.01,46.61-3.13,3.23-7.66,5.05-11.2,7.95-1.74,1.43-2.52,3.97-4.02,5.77-6.77,8.13-13.65,16.18-20.77,24.59-.33-.16-1.38-.59-2.34-1.17-6.28-3.84-6.71-4.48-3.42-10.85,1.48-2.87,1.28-7.35,5.94-8.03,.28-.04,.63-.81,.65-1.26,.38-10,6.73-17.64,10.6-26.2,4.64-10.27,10.33-20.09,15.84-29.95,5.17-9.26,10.71-18.31,16.08-27.46,.57-.97,1.13-1.94,1.95-3.34Zm-17.33,58l.88,.48c5.06-5.47,10.4-10.7,15.1-16.46,7.48-9.17,17.31-16.28,23.27-26.76,.2-.35,.87-.4,1.26-.68,1.41-1.01,3.95-2.03,3.97-3.1,.12-5.03,4.15-7.18,6.74-10.39,6.88-8.51,15.91-15.54,18.47-27.38-7.43,.35-14.85,.72-22.28,1.03-7.22,.29-14.45,.84-21.65,.59-3.1-.11-6.29-1.64-9.13-3.12-1.11-.58-2.22-3.04-1.87-4.22,1.63-5.55,4-10.88,5.66-16.43,1.65-5.52,2.75-11.2,4.1-16.8l-2.15-.89c-9.86,17.13-19.72,34.26-29.88,51.91h40.91c.65,1.66,.89,4.2,2.29,5.5,2.78,2.57,1.66,4.31,.04,6.79-7.79,11.9-15.64,23.78-22.99,35.95-4.68,7.74-8.53,15.98-12.76,23.99Z"/></svg>