<?xml version="1.0" encoding="UTF-8"?><svg id="Calque_1" xmlns="http://www.w3.org/2000/svg" viewBox="0 0 300 300"><path d="M95.48,215.53c-7.05,2.22-13.67,1.33-18.54-3.44-4.77-4.68-7.69-10.77-7.93-17.96-.3-8.73,2.23-16.41,7.19-23.39,2.12-2.97,2.65-5.46,1.11-9.26-5.72-14.06-3.86-27.72,5.57-39.45,3.76-4.68,9.74-7.86,15.18-10.86,10.26-5.66,16.73-14.84,23.94-23.52,9.61-11.58,21.7-19.68,37.11-20.78,5.62-.4,11.39,1.5,17.11,2.2,2.43,.3,5.21,.96,7.32,.14,12.68-4.94,24.51-2.35,33.42,7.74,4.87,5.51,6.54,11.71,4.28,18.84-1.11,3.5-1.49,6.45,1.15,10.06,7.71,10.54,10,22.8,7.87,35.52-3.21,19.19-10.87,36.61-23.07,51.86-4.85,6.06-9.45,12.52-15.22,17.59-16.24,14.23-35.59,20.94-57.15,21.36-2.49,.05-5.03-.04-7.45,.42-13.76,2.61-23.44-3-30.25-14.66-.42-.71-.93-1.37-1.64-2.41Zm120.43-81.64c-1.75-6.11-2.74-11.58-4.98-16.47-1.06-2.32-4.88-5.27-6.82-4.87-3.61,.75-7.64,3.03-9.93,5.92-6.8,8.58-12.63,17.91-19.23,26.65-4.16,5.51-8.2,11.77-13.78,15.4-9.69,6.29-20.67,10.56-30.86,16.12-10.15,5.54-19.1,12.32-20.02,25.33-.75,10.51,5.8,16.31,15.96,14.3,8.32-1.65,16.77-2.64,25.01-4.58,6.74-1.58,14.01-2.91,19.71-6.48,16.73-10.48,29.04-25.27,36.39-43.65,3.61-9.03,5.81-18.63,8.55-27.66Zm-53.82-50.18l-.48-1.27c-1.9,.27-3.91,.24-5.69,.85-8.86,3.02-16.69,7.89-22.04,15.59-9.53,13.74-22.06,23.65-36.73,31.29-6.7,3.49-10.72,14.57-8.39,22.48,1.13-.85,2.14-1.55,3.1-2.33,7.09-5.73,13.64-12.35,21.37-17.03,12.77-7.73,23.32-17.36,32.01-29.43,5.1-7.09,11.2-13.46,16.85-20.15Zm17.95,6.67c.97,.64,1.84,1.51,2.88,1.83,4.47,1.38,9.02,2.52,13.5,3.9,3.75,1.16,7.03,.55,8.79-3.02,1.8-3.66-.17-6.31-3.47-8.15-6.25-3.47-15.62-1.21-21.69,5.43Zm-25.41,55.45c-2.93-1.26-4.58-1.93-6.19-2.65-9.17-4.14-10.07-3.57-10.58,6.83-.07,1.39,0,2.79,0,5.43,5.92-3.39,10.82-6.2,16.78-9.61Zm-61.67,56.92c.88-3.44-2.08-11.11-5.02-12.17-.69-.25-2.64,1-2.89,1.88-1.45,5.08,2.29,9.78,7.92,10.29Zm67.57-73.03c-1.72-5.24-2.9-8.84-4.31-13.13-2.44,3.11-4.42,5.63-6.91,8.8,3.6,1.39,6.67,2.57,11.22,4.33Zm-39.76,29.44v-11.78c-3.09,2.5-5.4,4.37-8.31,6.71,3.03,1.85,5.31,3.24,8.31,5.07Zm51.6-43.27l2.08,.43c1.62-2.19,3.24-4.39,5.83-7.88l-7.24-.69-.67,8.14Zm-72.43,61.84c.73,.3,1.46,.61,2.19,.91l7.22-7.9c-2.93-.43-5.83-1.44-6.23-.82-1.5,2.31-2.19,5.16-3.18,7.81Z"/></svg>