<?xml version="1.0" encoding="utf-8"?>
<!-- Generator: Adobe Illustrator 26.3.1, SVG Export Plug-In . SVG Version: 6.00 Build 0)  -->
<svg version="1.1" id="Calque_1" xmlns="http://www.w3.org/2000/svg" xmlns:xlink="http://www.w3.org/1999/xlink" x="0px" y="0px"
	 viewBox="0 0 756.53 431.78" style="enable-background:new 0 0 756.53 431.78;" xml:space="preserve">
<style type="text/css">
	.st0{fill:#EB1A90;}
</style>
<g>
	<g>
		<path class="st0" d="M57.11,185.26c-1.03,1.37-1.65,3.12-1.85,5.25c-0.21,2.14-0.46,4.23-0.77,6.28c-0.31,2.05-0.85,3.8-1.62,5.25
			c-0.77,1.45-2.14,2.09-4.09,1.92c-0.41,0.86-0.49,1.37-0.23,1.54c0.26,0.17,0.49,0.94,0.7,2.31c-1.44-0.34-2.47-0.17-3.09,0.51
			c-0.62,0.68-1.39,1.19-2.32,1.54c-2.37-1.19-4.35-3.37-5.95-6.53c-1.6-3.16-2.99-6.62-4.17-10.38c-1.18-3.75-2.22-7.6-3.09-11.53
			c-0.88-3.93-1.78-7.34-2.7-10.25c0-0.68,0.18-0.98,0.54-0.9c0.36,0.09,0.7,0.13,1,0.13c-0.51-1.71-0.9-3.63-1.16-5.76
			c-0.26-2.13-0.75-3.88-1.47-5.25c2.99-10.59,6.18-21.65,9.58-33.18c3.4-11.53,6.82-23.23,10.27-35.1
			c3.45-11.87,6.9-23.83,10.35-35.87C60.49,43.2,63.81,31.38,67,19.76c2.88,1.71,5.69,3.71,8.42,6.02c2.73,2.31,5.23,5,7.49,8.07
			c2.26,3.07,4.2,6.62,5.79,10.63c1.6,4.02,2.65,8.58,3.17,13.71c-0.21,1.02-0.46,1.37-0.77,1.02c-0.31-0.34-0.57-0.17-0.77,0.51
			c0.51,1.02,0.8,1.75,0.85,2.18c0.05,0.43,0.02,0.86-0.08,1.28c-0.1,0.43-0.15,0.98-0.15,1.67c0,0.68,0.26,1.63,0.77,2.82
			c-0.52-0.17-0.88-0.04-1.08,0.38c-0.21,0.43-0.57,0.47-1.08,0.13c0.51,2.39,0.67,4.27,0.46,5.64c-0.21,1.37-0.52,2.61-0.93,3.71
			c-0.41,1.11-0.75,2.31-1,3.59c-0.26,1.28-0.18,3.03,0.23,5.25c-0.41,0-0.7,0.13-0.85,0.38c-0.15,0.26-0.28,0.56-0.39,0.9
			c-0.1,0.34-0.23,0.64-0.39,0.9s-0.44,0.3-0.85,0.13c0.31,4.44,0.41,8.93,0.31,13.45c-0.1,4.53-0.21,9.14-0.31,13.83
			c-0.1,4.7-0.1,9.52,0,14.47c0.1,4.96,0.51,10.08,1.24,15.37c4.43-4.27,8.01-9.82,10.74-16.65c2.73-6.83,4.89-14.43,6.49-22.8
			c1.6-8.37,2.83-17.33,3.71-26.9c0.87-9.56,1.78-19.3,2.7-29.21c1.13-1.88,2.03-4.18,2.7-6.92c0.67-2.73,1.24-5.55,1.7-8.45
			c0.46-2.9,0.93-5.85,1.39-8.84c0.46-2.99,1.11-5.68,1.93-8.07c1.85,0.34,3.42,1.24,4.71,2.69c1.29,1.45,2.5,3.07,3.63,4.87
			c1.13,1.79,2.32,3.46,3.55,5c1.24,1.54,2.78,2.56,4.64,3.07c1.44,3.42,2.78,6.71,4.02,9.86c1.24,3.16,2.06,6.7,2.47,10.63
			c-0.62,1.71-1.08,3.59-1.39,5.64c-0.31,2.05-0.64,4.1-1,6.15c-0.36,2.05-0.85,3.93-1.47,5.64c-0.62,1.71-1.49,3.16-2.63,4.35
			c-0.31,5.12-0.77,9.91-1.39,14.35c-0.62,4.44-1.19,8.8-1.7,13.07c-0.52,4.27-0.98,8.71-1.39,13.32
			c-0.41,4.61-0.57,9.65-0.46,15.12c-0.93,4.96-1.96,10.04-3.09,15.24c-1.13,5.21-1.96,10.04-2.47,14.47
			c-1.96,2.56-3.5,5.72-4.64,9.48c-1.13,3.76-2.32,7.52-3.55,11.27c-0.52,0.68-0.83,0.81-0.93,0.38c-0.1-0.42-0.57-0.72-1.39-0.9
			c0.1,1.54-0.08,2.52-0.54,2.95c-0.46,0.43-0.44,1.67,0.08,3.71c-1.75,1.37-3.3,3.16-4.64,5.38c-1.34,2.22-2.81,4.27-4.4,6.15
			c-1.6,1.88-3.45,3.12-5.56,3.71c-2.11,0.6-4.87-0.13-8.27-2.18c-5.05-6.15-9.58-13.23-13.6-21.26
			c-4.02-8.03-7.21-17.51-9.58-28.44c-1.03,0.51-1.8,1.63-2.32,3.33c-0.52,1.71-0.98,3.5-1.39,5.38c-0.41,1.88-0.83,3.59-1.24,5.12
			c-0.41,1.54-1.03,2.31-1.85,2.31c-0.21,1.54-0.59,2.95-1.16,4.23c-0.57,1.28-1.11,2.56-1.62,3.84c-0.52,1.28-0.9,2.69-1.16,4.23
			C56.47,181.68,56.6,183.38,57.11,185.26z"/>
		<path class="st0" d="M227.53,132.49c-0.1,2.05,0,4.02,0.31,5.89c0.31,1.88,0.69,3.71,1.16,5.51c0.46,1.79,0.9,3.63,1.31,5.51
			c0.41,1.88,0.72,3.76,0.93,5.64c0.21,2.39,0.21,5,0,7.81c-0.21,2.82-0.57,5.55-1.08,8.2c-0.52,2.65-1.19,5.04-2.01,7.17
			c-0.83,2.14-1.8,3.71-2.94,4.74c-1.44,3.07-3.19,5.47-5.25,7.17c-2.06,1.71-3.97,3.76-5.72,6.15c-1.13,1.2-2.4,2.05-3.79,2.56
			c-1.39,0.51-2.81,1.02-4.25,1.54c-1.13,1.02-2.47,2.09-4.02,3.2c-1.54,1.11-3.14,2.14-4.79,3.07c-1.65,0.94-3.3,1.62-4.94,2.05
			c-1.65,0.43-3.09,0.56-4.33,0.38c-3.09,1.88-6.1,3.11-9.04,3.71c-2.94,0.6-6.36,0.21-10.27-1.15c-3.71,0.85-7.13,0.6-10.27-0.77
			c-3.14-1.37-5.92-3.54-8.34-6.53c-2.42-2.99-4.53-6.57-6.33-10.76c-1.8-4.18-3.27-8.58-4.4-13.19
			c-0.83-9.73-0.62-18.57,0.62-26.52c1.24-7.94,3.01-15.28,5.33-22.03c2.32-6.75,4.97-12.98,7.96-18.7
			c2.99-5.72,5.87-11.31,8.65-16.78c0.62,0.34,1.11,0.3,1.47-0.13c0.36-0.42,0.7-1.02,1-1.79c0.31-0.77,0.64-1.49,1-2.18
			c0.36-0.68,0.8-1.11,1.31-1.28c0.72-2.56,1.78-4.48,3.17-5.76c1.39-1.28,2.5-3.11,3.32-5.51c0.93-0.34,1.7-0.85,2.32-1.54
			c0.62-0.68,1.21-1.45,1.78-2.31c0.56-0.85,1.16-1.67,1.78-2.43s1.34-1.32,2.16-1.67v-2.82c1.85-1.37,3.22-2.95,4.09-4.74
			c0.87-1.79,1.93-3.97,3.17-6.53c0.93-0.17,1.67-0.26,2.24-0.26c0.56,0,1.41-0.17,2.55-0.51c0.82-2.39,1.57-4.18,2.24-5.38
			c0.67-1.19,1.67-2.47,3.01-3.84c1.24,1.02,2.6,1.71,4.09,2.05c1.49,0.34,2.81,1.45,3.94,3.33c0.1,1.71,0.41,3.03,0.93,3.97
			c0.51,0.94,1.08,1.79,1.7,2.56c0.62,0.77,1.21,1.58,1.78,2.43c0.56,0.86,0.95,2.05,1.16,3.59c0.41,0.17,0.7,0.09,0.85-0.26
			c0.15-0.34,0.44-0.42,0.85-0.26c0.31,2.39,0.67,3.97,1.08,4.74c0.41,0.77,0.82,2.27,1.24,4.48c-0.52,1.71-0.9,3.46-1.16,5.25
			c-0.26,1.79-0.9,3.12-1.93,3.97c-0.1,1.2,0.1,1.84,0.62,1.92c0.51,0.09,0.82,0.56,0.93,1.41c0.1,1.54-0.05,2.65-0.46,3.33
			c2.47,6.66,4.69,13.71,6.64,21.14C222.84,118.78,225.06,125.83,227.53,132.49z M208.22,156.83c0.41-1.88,0.95-3.41,1.62-4.61
			c0.67-1.19,1.05-2.99,1.16-5.38c-0.52-1.36-0.83-2.43-0.93-3.2c-0.1-0.77-0.15-2.01-0.15-3.71c-2.27-5.29-4.22-10.97-5.87-17.04
			c-1.65-6.06-3.5-11.74-5.56-17.04c-0.21,0.68-0.57,1.37-1.08,2.05c-0.52,0.68-1.08,0.51-1.7-0.51c-0.21,1.37-0.57,2.35-1.08,2.95
			c-0.52,0.6-1.08,0.86-1.7,0.77c-0.62-0.08-1.26-0.34-1.93-0.77c-0.67-0.42-1.26-0.98-1.78-1.67c-2.99,3.93-5.97,7.77-8.96,11.53
			c-2.99,3.76-5.67,8.11-8.03,13.07c-0.41,0.34-0.67,0.47-0.77,0.38c-0.1-0.08-0.41,0.04-0.93,0.38c-0.83,3.25-1.83,6.19-3.01,8.84
			c-1.18,2.65-2.34,5.34-3.48,8.07c-1.13,2.73-2.11,5.64-2.94,8.71c-0.83,3.07-1.29,6.66-1.39,10.76c1.75,2.39,3.81,3.84,6.18,4.35
			c2.37,0.51,4.81,0.6,7.34,0.26c2.52-0.34,5-0.9,7.42-1.67c2.42-0.77,4.66-1.15,6.72-1.15c4.33-1.71,8.03-3.97,11.12-6.79
			C201.57,162.59,204.82,159.73,208.22,156.83z"/>
		<path class="st0" d="M316.98,86.12c-2.58,0-5.36,0.3-8.34,0.9c-2.99,0.6-5.92,1.24-8.81,1.92c-2.06,0.51-4.04,0.94-5.95,1.28
			c-1.91,0.34-3.63,0.6-5.18,0.77c-0.72,3.76-1.44,7.09-2.16,9.99c-0.72,2.91-1.49,5.72-2.32,8.45c-0.83,2.91-1.57,5.85-2.24,8.84
			c-0.67,2.99-1.31,6.19-1.93,9.61c-1.03,2.73-1.88,5.25-2.55,7.56c-0.67,2.31-1.21,4.91-1.62,7.81c-1.24,2.56-2.16,5.25-2.78,8.07
			c-0.62,2.82-1.08,5.25-1.39,7.3l-0.62,3.07c-0.62,1.02-0.98,1.84-1.08,2.43c-0.1,0.6-0.36,1.15-0.77,1.67
			c-0.1,1.88-0.46,3.76-1.08,5.64c-0.21,0.86-0.36,1.67-0.46,2.43c-0.1,0.77-0.15,1.33-0.15,1.67c0,1.71-0.26,2.82-0.77,3.33
			c0.1,0.86,0.1,1.75,0,2.69c-0.1,0.94-0.21,1.84-0.31,2.69c-0.31,2.05-0.41,3.67-0.31,4.87c0.31,0.68,0.59,1.28,0.85,1.79
			c0.26,0.51,0.44,1.2,0.54,2.05c0.62,0.68,1.08,1.11,1.39,1.28c0.41,0.51,1.03,1.11,1.85,1.79l1.39,2.56
			c0.51,4.96,0.05,8.88-1.39,11.79c-1.55,3.24-4.17,4.87-7.88,4.87h-1.85c-0.52-0.86-0.83-1.54-0.93-2.05
			c-0.83-0.51-1.49-0.94-2.01-1.28c-0.52-0.34-0.98-1.02-1.39-2.05c-1.34-1.02-2.42-1.88-3.24-2.56l-1.39-1.28c0-1.88,0-2.9,0-3.07
			c-0.72-1.54-1.26-3.24-1.62-5.12c-0.36-1.88-0.64-3.75-0.85-5.64c-0.21-1.54-0.44-2.99-0.7-4.36c-0.26-1.37-0.59-2.56-1-3.59
			c-0.21-9.9,0.36-18.27,1.7-25.11c1.34-6.83,2.73-13.41,4.17-19.73c0.82-3.41,1.65-6.87,2.47-10.38c0.82-3.5,1.54-7.13,2.16-10.89
			l1.39-2.56c0.72-2.73,1.31-5,1.78-6.79c0.46-1.79,0.95-3.63,1.47-5.51c0.31-1.19,0.59-2.35,0.85-3.46
			c0.26-1.11,0.49-2.09,0.7-2.95c-0.62,0-1.19,0.04-1.7,0.13c-0.52,0.09-1.03,0.22-1.54,0.38c-0.62,0.17-1.19,0.3-1.7,0.38
			c-0.52,0.09-1.03,0.13-1.55,0.13c-0.72,0-1.24-0.08-1.54-0.26c-1.13,0.86-2.37,1.28-3.71,1.28h-1.54c-0.31,0-0.59-0.04-0.85-0.13
			c-0.26-0.08-0.49-0.13-0.7-0.13c-1.03,0-1.85,0.26-2.47,0.77c-1.24,0-2.42,0-3.55,0h-1.54c-0.21,0-0.46,0.04-0.77,0.13
			c-0.31,0.09-0.57,0.13-0.77,0.13c-0.72,0-1.49-0.13-2.32-0.38c-0.83-0.26-1.7-0.81-2.63-1.67c-1.24-2.73-2.06-4.18-2.47-4.35
			l-1.39-3.07c-0.1-1.02-0.26-2.01-0.46-2.95c-0.21-0.94-0.41-2.01-0.62-3.2c-0.41-1.71-0.8-3.54-1.16-5.51
			c-0.36-1.96-0.54-4.31-0.54-7.05c0.1-1.37,0.31-2.39,0.62-3.07c0.31-0.68,0.57-1.28,0.77-1.79l0.46-3.84l2.01,0.26h4.33
			c3.29,0,6.64-0.21,10.04-0.64c3.4-0.42,6.9-0.9,10.51-1.41c2.06-0.34,4.15-0.68,6.26-1.02c2.11-0.34,4.3-0.68,6.57-1.02
			c0.41-1.54,0.82-2.99,1.24-4.36l1.55-1.28c1.85-0.17,3.17,0.22,3.94,1.15c0.77,0.94,1.41,1.84,1.93,2.69
			c2.26-0.34,4.56-0.72,6.88-1.15c2.32-0.42,4.66-0.98,7.03-1.67c3.5-0.85,7.03-1.62,10.58-2.31c3.55-0.68,6.98-1.02,10.27-1.02
			c1.44,0,2.83,0.09,4.17,0.26c1.34,0.17,2.57,0.43,3.71,0.77l1.55,1.79c0.31,1.02,0.75,1.97,1.31,2.82
			c0.56,0.86,1.16,1.71,1.78,2.56c1.24,1.88,2.47,4.1,3.71,6.66c1.24,2.56,1.7,6.32,1.39,11.27c-0.83,2.05-1.44,3.25-1.85,3.59
			l-1.39,3.07l-1.54-0.26c-0.62,0-1.19,0.13-1.7,0.38c-0.52,0.26-1.03,0.56-1.55,0.9c-0.41,0.34-0.83,0.64-1.24,0.9
			c-0.41,0.26-0.88,0.47-1.39,0.64c-0.93,0-1.68-0.04-2.24-0.13C318.19,86.16,317.6,86.12,316.98,86.12z"/>
		<path class="st0" d="M329.81,182.7c-1.13,6.83-2.14,12-3.01,15.5c-0.88,3.5-2.19,7.13-3.94,10.89c-1.34-0.34-2.27-0.08-2.78,0.77
			c-0.52,0.85-1.08,1.62-1.7,2.31c-0.93,0.34-1.6,0.34-2.01,0c-0.41-0.34-0.77-0.73-1.08-1.15c-0.31-0.43-0.7-0.86-1.16-1.28
			c-0.46-0.42-1.16-0.64-2.09-0.64c-0.21-1.36-0.44-2.65-0.69-3.84c-0.26-1.19-0.95-1.62-2.09-1.28c0.21-1.37,0.26-2.52,0.15-3.46
			c-0.1-0.94-0.23-1.79-0.39-2.56c-0.15-0.77-0.28-1.54-0.39-2.31c-0.1-0.77-0.05-1.75,0.15-2.95c-0.52,0-0.93-0.6-1.24-1.79
			c-0.31-1.19-0.67-2.39-1.08-3.59c0.31-3.07,0.62-5.98,0.93-8.71c0.31-2.73,0.69-5.29,1.16-7.69c0.46-2.39,0.85-4.78,1.16-7.17
			c0.31-2.39,0.15-4.87-0.46-7.43c0.41,0.51,0.72,0.38,0.93-0.38c0.21-0.77,0.36-1.79,0.46-3.07c0.1-1.28,0.15-2.56,0.15-3.84
			c0-1.28-0.05-2.35-0.15-3.2c1.03-4.44,1.88-9.01,2.55-13.71c0.67-4.7,1.29-9.35,1.85-13.96c0.56-4.61,1.16-9.13,1.78-13.58
			c0.62-4.44,1.44-8.54,2.47-12.3c1.13-0.34,2.39-0.13,3.78,0.64c1.39,0.77,2.24,1.75,2.55,2.95c2.68-3.41,5.05-7.56,7.11-12.43
			c2.06-4.87,4.17-9.61,6.33-14.22c2.16-4.61,4.56-8.71,7.18-12.3c2.63-3.59,5.95-5.72,9.97-6.4c2.06,2.56,4.35,5.17,6.87,7.81
			c2.52,2.65,4.61,6.11,6.26,10.38c0.82,0.68,1.52,1.41,2.09,2.18c0.56,0.77,1.26,1.58,2.09,2.43v3.07
			c1.24,1.88,2.24,4.06,3.01,6.53c0.77,2.48,1.47,5.12,2.09,7.94c0.62,2.82,1.24,5.64,1.85,8.45c0.62,2.82,1.34,5.51,2.16,8.07
			c-0.21,0.86-0.31,1.58-0.31,2.18c0,0.6,0.08,1.24,0.23,1.92c0.16,0.68,0.28,1.37,0.39,2.05c0.1,0.68,0.1,1.63,0,2.82
			c-0.31,7.52-1.78,13.58-4.4,18.19c-2.63,4.61-5.79,8.41-9.5,11.4c-3.71,2.99-7.67,5.51-11.9,7.56c-4.22,2.05-8.03,4.27-11.43,6.66
			c0,0.68,0.18,1.02,0.54,1.02c0.36,0,0.49,0.43,0.39,1.28c2.47,2.56,4.43,4.61,5.87,6.15c1.44,1.54,2.81,2.82,4.09,3.84
			c1.29,1.02,2.68,1.92,4.17,2.69c1.49,0.77,3.58,1.67,6.26,2.69c2.68,1.02,4.76,1.84,6.26,2.43c1.49,0.6,2.86,1.11,4.09,1.54
			c1.24,0.43,2.5,0.77,3.79,1.02c1.29,0.26,3.11,0.56,5.48,0.9c0.93,1.54,1.72,3.37,2.4,5.51c0.67,2.14,1.11,4.27,1.31,6.4
			c0.21,2.14,0.26,4.19,0.15,6.15c-0.1,1.97-0.46,3.55-1.08,4.74c0.1,0.51,0.33,0.73,0.7,0.64c0.36-0.08,0.75-0.04,1.16,0.13
			c-0.62,0.68-1.13,1.54-1.54,2.56c-0.41,1.02-0.83,2.05-1.24,3.07c-0.41,1.02-0.88,1.92-1.39,2.69c-0.52,0.77-1.24,1.24-2.16,1.41
			c-3.19,2.05-7.21,2.18-12.05,0.38c-4.84-1.79-10.97-5.08-18.39-9.86c-3.71-2.39-6.72-4.48-9.04-6.28
			c-2.32-1.79-4.33-3.59-6.03-5.38c-1.7-1.79-3.24-3.71-4.64-5.76C333.44,188.08,331.76,185.61,329.81,182.7z M351.9,94.83
			c-1.13,2.73-2.4,5.21-3.79,7.43c-1.39,2.22-2.73,4.48-4.02,6.79c-1.29,2.31-2.45,4.87-3.48,7.69c-1.03,2.82-1.75,6.11-2.16,9.86
			c3.6-0.68,7.36-2.35,11.28-5c3.91-2.65,7.62-5.16,11.12-7.56c-0.41-5.29-1.52-9.56-3.32-12.81
			C355.74,97.99,353.86,95.85,351.9,94.83z"/>
		<path class="st0" d="M476.74,65.11c0.1,1.2,0.13,2.09,0.08,2.69c-0.05,0.6-0.1,1.15-0.15,1.67c-0.05,0.51-0.08,1.07-0.08,1.67
			c0,0.6,0.1,1.5,0.31,2.69c-2.16,5.81-4.66,9.78-7.49,11.91c-2.83,2.14-5.9,3.67-9.19,4.61c-3.3,0.94-6.67,1.92-10.12,2.95
			c-3.45,1.02-6.88,3.25-10.27,6.66c-1.34-0.85-2.55-0.85-3.63,0c-1.08,0.86-2.65,1.11-4.71,0.77c-0.62,1.02-1.39,1.75-2.32,2.18
			c-0.93,0.43-1.85,0.9-2.78,1.41c0.41,1.54,0.59,3.12,0.54,4.74c-0.05,1.63,0.08,2.95,0.39,3.97c3.6,0.51,7.59,0.43,11.97-0.26
			c4.38-0.68,8.68-1.11,12.9-1.28c0.1,0.86,0.05,1.41-0.15,1.67c-0.21,0.26-0.26,0.73-0.15,1.41c0.72,0.86,1.44,1.92,2.16,3.2
			c0.72,1.28,1.44,2.52,2.16,3.71c0.72,1.2,1.47,2.18,2.24,2.95s1.67,1.07,2.7,0.9c0.41,1.37,0.7,2.86,0.85,4.48
			c0.16,1.63,0.02,3.29-0.39,5c-1.65,1.88-3.3,3.8-4.94,5.76c-1.65,1.97-3.37,3.71-5.18,5.25c-1.8,1.54-3.71,2.78-5.72,3.71
			c-2.01,0.94-4.25,1.32-6.72,1.15c-0.52,0-0.9,0-1.16,0c-0.26,0-0.59-0.26-1-0.77c-0.83,0.86-1.98,1.11-3.48,0.77
			c-1.49-0.34-2.65-0.08-3.48,0.77c-1.14-0.85-2.5-1.24-4.09-1.15c-1.6,0.09-3.01-0.21-4.25-0.9c-1.65,3.59-3.14,7.43-4.48,11.53
			c-1.34,4.1-2.53,8.45-3.55,13.07c3.5,0.86,6.41,1.2,8.73,1.02c2.32-0.17,4.5-0.47,6.57-0.9c2.06-0.42,4.17-0.85,6.33-1.28
			c2.16-0.42,4.89-0.55,8.19-0.38c2.06-1.88,4.5-3.11,7.34-3.71c2.83-0.6,5.43-1.58,7.8-2.95c0.82,0.51,1.55,1.41,2.16,2.69
			c0.62,1.28,1.21,2.48,1.78,3.59c0.56,1.11,1.16,2.09,1.78,2.95c0.62,0.86,1.39,1.2,2.32,1.02c0.41,0.68,0.69,1.5,0.85,2.43
			c0.16,0.94,0.28,1.84,0.39,2.69c0.1,0.86,0.28,1.58,0.54,2.18c0.26,0.6,0.69,0.81,1.31,0.64c-1.55,5.64-3.32,9.95-5.33,12.94
			c-2.01,2.99-4.3,5.25-6.88,6.79c-2.58,1.54-5.43,2.73-8.57,3.59c-3.14,0.86-6.62,1.88-10.43,3.07c-0.93,0.34-1.7,0.3-2.32-0.13
			c-0.62-0.43-1.34-0.64-2.16-0.64c-2.37,0.85-5.2,1.62-8.5,2.31c-3.3,0.68-6.64,0.94-10.04,0.77c-3.4-0.17-6.64-0.9-9.73-2.18
			c-3.09-1.28-5.61-3.54-7.57-6.79c-0.83-1.19-1.37-2.6-1.62-4.23c-0.26-1.62-0.95-2.86-2.09-3.71c-0.1-2.22-0.31-4.7-0.62-7.43
			c-0.31-2.73-0.62-5.59-0.93-8.58c-0.31-2.99-0.54-5.93-0.7-8.84c-0.15-2.9-0.08-5.55,0.23-7.94c0.31-2.56,0.95-4.87,1.93-6.92
			c0.98-2.05,1.31-4.27,1-6.66c0.52-0.17,0.82-0.64,0.93-1.41c0.1-0.77,0.51-1.06,1.24-0.9c0.62-3.07,1.29-5.98,2.01-8.71
			c0.72-2.73,1.47-5.38,2.24-7.94s1.55-5.16,2.32-7.81c0.77-2.65,1.52-5.59,2.24-8.84c-1.44-2.22-2.5-4.65-3.17-7.3
			c-0.67-2.65-1.16-5.29-1.47-7.94c-0.31-2.65-0.57-5.38-0.77-8.2c-0.21-2.82-0.57-5.68-1.08-8.58c1.03-2.56,2.29-4.65,3.78-6.28
			c1.49-1.62,3.11-2.95,4.87-3.97c1.75-1.02,3.65-1.88,5.72-2.56c2.06-0.68,4.22-1.45,6.49-2.31c4.12-2.22,7.8-3.93,11.05-5.12
			c3.24-1.19,6.44-2.18,9.58-2.95c3.14-0.77,6.41-1.49,9.81-2.18c3.4-0.68,7.26-1.71,11.59-3.07c0.93,1.54,1.8,2.31,2.63,2.31
			c0.41-1.54,0.9-2.01,1.47-1.41c0.56,0.6,0.8,0.13,0.7-1.41c1.03,2.91,2.34,5.34,3.94,7.3C473,62.08,474.78,63.74,476.74,65.11z"/>
		<path class="st0" d="M119.22,327.63c-0.1,2.05,0,4.02,0.31,5.89c0.31,1.88,0.69,3.71,1.16,5.51c0.46,1.79,0.9,3.63,1.31,5.51
			c0.41,1.88,0.72,3.76,0.93,5.64c0.21,2.39,0.21,5,0,7.81c-0.21,2.82-0.57,5.55-1.08,8.2c-0.52,2.65-1.19,5.04-2.01,7.17
			c-0.83,2.14-1.8,3.71-2.94,4.74c-1.44,3.07-3.19,5.47-5.25,7.17c-2.06,1.71-3.97,3.76-5.72,6.15c-1.13,1.2-2.4,2.05-3.79,2.56
			c-1.39,0.51-2.81,1.02-4.25,1.54c-1.13,1.02-2.47,2.09-4.02,3.2c-1.54,1.11-3.14,2.14-4.79,3.07c-1.65,0.94-3.3,1.63-4.94,2.05
			c-1.65,0.43-3.09,0.56-4.33,0.38c-3.09,1.88-6.1,3.11-9.04,3.71c-2.94,0.6-6.36,0.21-10.27-1.15c-3.71,0.85-7.13,0.6-10.27-0.77
			c-3.14-1.37-5.92-3.54-8.34-6.53c-2.42-2.99-4.53-6.57-6.33-10.76c-1.8-4.18-3.27-8.58-4.4-13.19
			c-0.83-9.74-0.62-18.57,0.62-26.52c1.24-7.94,3.01-15.28,5.33-22.03c2.32-6.75,4.97-12.98,7.96-18.7
			c2.99-5.72,5.87-11.31,8.65-16.78c0.62,0.34,1.11,0.3,1.47-0.13c0.36-0.42,0.7-1.02,1-1.79c0.31-0.77,0.64-1.49,1-2.18
			c0.36-0.68,0.8-1.11,1.31-1.28c0.72-2.56,1.78-4.48,3.17-5.76c1.39-1.28,2.5-3.11,3.32-5.51c0.93-0.34,1.7-0.85,2.32-1.54
			c0.62-0.68,1.21-1.45,1.78-2.31c0.56-0.85,1.16-1.67,1.78-2.43s1.34-1.32,2.16-1.67v-2.82c1.85-1.37,3.22-2.95,4.09-4.74
			c0.87-1.79,1.93-3.97,3.17-6.53c0.93-0.17,1.67-0.26,2.24-0.26c0.56,0,1.41-0.17,2.55-0.51c0.82-2.39,1.57-4.18,2.24-5.38
			c0.67-1.19,1.67-2.47,3.01-3.84c1.24,1.02,2.6,1.71,4.09,2.05c1.49,0.34,2.81,1.45,3.94,3.33c0.1,1.71,0.41,3.03,0.93,3.97
			c0.51,0.94,1.08,1.79,1.7,2.56c0.62,0.77,1.21,1.58,1.78,2.43c0.56,0.86,0.95,2.05,1.16,3.59c0.41,0.17,0.7,0.09,0.85-0.26
			c0.15-0.34,0.44-0.42,0.85-0.26c0.31,2.39,0.67,3.97,1.08,4.74c0.41,0.77,0.82,2.27,1.24,4.48c-0.52,1.71-0.9,3.46-1.16,5.25
			c-0.26,1.79-0.9,3.12-1.93,3.97c-0.1,1.2,0.1,1.84,0.62,1.92c0.51,0.09,0.82,0.56,0.93,1.41c0.1,1.54-0.05,2.65-0.46,3.33
			c2.47,6.66,4.69,13.71,6.64,21.14C114.54,313.92,116.75,320.96,119.22,327.63z M99.91,351.96c0.41-1.88,0.95-3.41,1.62-4.61
			c0.67-1.19,1.05-2.99,1.16-5.38c-0.52-1.37-0.83-2.43-0.93-3.2c-0.1-0.77-0.15-2.01-0.15-3.71c-2.27-5.29-4.22-10.97-5.87-17.04
			c-1.65-6.06-3.5-11.74-5.56-17.04c-0.21,0.68-0.57,1.37-1.08,2.05c-0.52,0.68-1.08,0.51-1.7-0.51c-0.21,1.37-0.57,2.35-1.08,2.95
			c-0.52,0.6-1.08,0.86-1.7,0.77c-0.62-0.08-1.26-0.34-1.93-0.77c-0.67-0.42-1.26-0.98-1.78-1.67c-2.99,3.93-5.97,7.77-8.96,11.53
			c-2.99,3.76-5.67,8.11-8.03,13.07c-0.41,0.34-0.67,0.47-0.77,0.38c-0.1-0.08-0.41,0.04-0.93,0.38c-0.83,3.25-1.83,6.19-3.01,8.84
			c-1.18,2.65-2.34,5.34-3.48,8.07c-1.13,2.73-2.11,5.64-2.94,8.71c-0.83,3.07-1.29,6.66-1.39,10.76c1.75,2.39,3.81,3.84,6.18,4.36
			c2.37,0.51,4.81,0.6,7.34,0.26c2.52-0.34,5-0.9,7.42-1.67c2.42-0.77,4.66-1.15,6.72-1.15c4.33-1.71,8.03-3.97,11.12-6.79
			S96.51,354.87,99.91,351.96z"/>
		<path class="st0" d="M150.28,395.77c-0.62,5.81-2.37,9.82-5.25,12.04c-1.34,0.17-2.34,0.08-3.01-0.26
			c-0.67-0.34-1.37-0.77-2.09-1.28c-0.93-0.68-1.75-1.11-2.47-1.28l-1.7-2.05c-0.21-0.85-0.46-1.71-0.77-2.56
			c-0.31-0.85-0.67-1.71-1.08-2.56c-0.83-1.71-1.65-3.84-2.47-6.4c-0.62-4.95-0.72-9.09-0.31-12.43c0.41-3.33,0.93-6.62,1.54-9.86
			c0.21-1.02,0.41-2.09,0.62-3.2c0.21-1.11,0.41-2.18,0.62-3.2c-2.68-2.39-4.69-5.8-6.03-10.25c-1.34-4.44-2.11-8.71-2.32-12.81
			c0.31-3.24,0.88-5.85,1.7-7.81c0.83-1.96,1.78-3.54,2.86-4.74c1.08-1.19,2.21-2.13,3.4-2.82c1.18-0.68,2.34-1.28,3.48-1.79
			l2.01,1.28c0.93,1.54,1.85,2.73,2.78,3.59c0.72-0.51,1.21-1.32,1.47-2.43c0.26-1.11,0.49-2.35,0.7-3.71
			c0.31-1.54,0.64-3.07,1-4.61c0.36-1.54,0.8-3.07,1.31-4.61c-0.1-2.22,0.1-4.27,0.62-6.15c-0.72-0.85-1.49-1.36-2.32-1.54
			c-0.21,0-0.72-0.17-1.54-0.51c-1.24-1.54-2.09-2.86-2.55-3.97c-0.46-1.11-0.9-2.18-1.31-3.2c-0.62-2.22-1.39-4.01-2.32-5.38
			l-1.55-1.79l0.77-2.56c0.21-0.34,0.31-0.77,0.31-1.28c0-0.51-0.21-1.28-0.62-2.31c-0.21-1.88-0.21-3.16,0-3.84l0.31-2.56
			c0.82-1.88,1.24-2.9,1.24-3.07l1.39-2.31c2.06-0.85,4.09-1.83,6.1-2.95c2.01-1.11,4.04-2.26,6.1-3.46
			c1.96-1.02,3.94-2.09,5.95-3.2c2.01-1.11,4.04-2.09,6.1-2.95c0.72-0.85,1.49-1.41,2.32-1.67c0.82-0.26,1.6-0.47,2.32-0.64
			c0.62-0.17,1.18-0.3,1.7-0.38c0.51-0.08,0.87-0.38,1.08-0.9c1.24-0.68,2.68-1.45,4.33-2.31c2.57-1.19,5.97-2.52,10.2-3.97
			c4.22-1.45,8.96-2.6,14.21-3.46l2.63-0.26c0.51,0.17,1.03,0.22,1.55,0.13c0.51-0.08,1.03-0.13,1.54-0.13
			c4.64,0,7.57,2.31,8.81,6.92c0.93,0.86,1.75,1.79,2.47,2.82c0.72,1.03,1.39,2.05,2.01,3.07c0.31,0.68,0.64,1.28,1,1.79
			c0.36,0.51,0.64,0.86,0.85,1.02c1.75,4.44,2.32,8.37,1.7,11.79c-0.93,2.22-2.11,3.5-3.55,3.84l-1.7,1.54
			c-1.13-0.17-1.98-0.26-2.55-0.26c-0.57,0-1.16,0-1.78,0c-2.58,0-5.56,0.26-8.96,0.77c-3.4,0.51-6.88,1.24-10.43,2.18
			c-3.55,0.94-6.98,2.09-10.27,3.46c-3.3,1.37-6.18,2.82-8.65,4.36l-2.78,2.31c-0.72,1.88-1.13,3.37-1.24,4.48
			c-0.1,1.11-0.21,2.18-0.31,3.2c-0.1,0.68-0.18,1.37-0.23,2.05c-0.05,0.68-0.13,1.45-0.23,2.31c-1.75,3.59-2.63,7.86-2.63,12.81
			c-0.72,2.05-1.19,3.55-1.39,4.48c-0.21,0.94-0.21,2.09,0,3.46c1.96,1.37,3.81,1.88,5.56,1.54c1.75-0.34,3.5-0.77,5.25-1.28
			c2.37-0.68,4.81-1.28,7.34-1.79c2.52-0.51,5.12-0.77,7.8-0.77h4.94l-1.24,2.05l0.77,3.59c0.62,0.51,1.05,0.86,1.31,1.02
			c0.26,0.17,0.54,0.43,0.85,0.77l0.77,2.31c0.41,0.34,0.8,0.94,1.16,1.79c0.36,0.86,0.59,2.14,0.7,3.84l-6.33,14.86l-2.16,1.02
			c-1.75-0.17-3.3,0.17-4.64,1.03c-0.72,0.34-1.44,0.64-2.16,0.9c-0.72,0.26-1.49,0.38-2.32,0.38c-2.06,0.68-3.79,1.2-5.18,1.54
			c-1.39,0.34-2.81,0.68-4.25,1.02c-1.85,0.34-3.66,0.81-5.41,1.41c-1.75,0.6-3.4,1.41-4.94,2.43c-1.03,0-1.75,0-2.16,0
			c-0.83,0-1.68,0.22-2.55,0.64c-0.88,0.43-1.68,0.81-2.39,1.15c-0.52,0.68-0.88,1.41-1.08,2.18c-0.21,0.77-0.41,1.58-0.62,2.43
			c-0.41,2.39-0.98,4.36-1.7,5.89v3.84c-0.83,1.71-1.31,3.03-1.47,3.97c-0.15,0.94-0.34,1.84-0.54,2.69
			c-0.21,0.51-0.36,0.99-0.46,1.41c-0.1,0.43-0.15,0.9-0.15,1.41C150.48,389.62,150.69,392.53,150.28,395.77z"/>
		<path class="st0" d="M222.27,395.77c-0.62,5.81-2.37,9.82-5.25,12.04c-1.34,0.17-2.34,0.08-3.01-0.26
			c-0.67-0.34-1.37-0.77-2.09-1.28c-0.93-0.68-1.75-1.11-2.47-1.28l-1.7-2.05c-0.21-0.85-0.46-1.71-0.77-2.56
			c-0.31-0.85-0.67-1.71-1.08-2.56c-0.83-1.71-1.65-3.84-2.47-6.4c-0.62-4.95-0.72-9.09-0.31-12.43c0.41-3.33,0.93-6.62,1.54-9.86
			c0.21-1.02,0.41-2.09,0.62-3.2c0.21-1.11,0.41-2.18,0.62-3.2c-2.68-2.39-4.69-5.8-6.03-10.25c-1.34-4.44-2.11-8.71-2.32-12.81
			c0.31-3.24,0.88-5.85,1.7-7.81c0.83-1.96,1.78-3.54,2.86-4.74c1.08-1.19,2.21-2.13,3.4-2.82c1.18-0.68,2.34-1.28,3.48-1.79
			l2.01,1.28c0.93,1.54,1.85,2.73,2.78,3.59c0.72-0.51,1.21-1.32,1.47-2.43c0.26-1.11,0.49-2.35,0.7-3.71
			c0.31-1.54,0.64-3.07,1-4.61c0.36-1.54,0.8-3.07,1.31-4.61c-0.1-2.22,0.1-4.27,0.62-6.15c-0.72-0.85-1.49-1.36-2.32-1.54
			c-0.21,0-0.72-0.17-1.54-0.51c-1.24-1.54-2.09-2.86-2.55-3.97c-0.46-1.11-0.9-2.18-1.31-3.2c-0.62-2.22-1.39-4.01-2.32-5.38
			l-1.55-1.79l0.77-2.56c0.21-0.34,0.31-0.77,0.31-1.28c0-0.51-0.21-1.28-0.62-2.31c-0.21-1.88-0.21-3.16,0-3.84l0.31-2.56
			c0.82-1.88,1.24-2.9,1.24-3.07l1.39-2.31c2.06-0.85,4.09-1.83,6.1-2.95c2.01-1.11,4.04-2.26,6.1-3.46
			c1.96-1.02,3.94-2.09,5.95-3.2c2.01-1.11,4.04-2.09,6.1-2.95c0.72-0.85,1.49-1.41,2.32-1.67c0.82-0.26,1.6-0.47,2.32-0.64
			c0.62-0.17,1.18-0.3,1.7-0.38c0.51-0.08,0.87-0.38,1.08-0.9c1.24-0.68,2.68-1.45,4.33-2.31c2.57-1.19,5.97-2.52,10.2-3.97
			c4.22-1.45,8.96-2.6,14.21-3.46l2.63-0.26c0.51,0.17,1.03,0.22,1.55,0.13c0.51-0.08,1.03-0.13,1.54-0.13
			c4.64,0,7.57,2.31,8.81,6.92c0.93,0.86,1.75,1.79,2.47,2.82c0.72,1.03,1.39,2.05,2.01,3.07c0.31,0.68,0.64,1.28,1,1.79
			c0.36,0.51,0.64,0.86,0.85,1.02c1.75,4.44,2.32,8.37,1.7,11.79c-0.93,2.22-2.11,3.5-3.55,3.84l-1.7,1.54
			c-1.13-0.17-1.98-0.26-2.55-0.26c-0.57,0-1.16,0-1.78,0c-2.58,0-5.56,0.26-8.96,0.77c-3.4,0.51-6.88,1.24-10.43,2.18
			c-3.55,0.94-6.98,2.09-10.27,3.46c-3.3,1.37-6.18,2.82-8.65,4.36l-2.78,2.31c-0.72,1.88-1.13,3.37-1.24,4.48
			c-0.1,1.11-0.21,2.18-0.31,3.2c-0.1,0.68-0.18,1.37-0.23,2.05c-0.05,0.68-0.13,1.45-0.23,2.31c-1.75,3.59-2.63,7.86-2.63,12.81
			c-0.72,2.05-1.19,3.55-1.39,4.48c-0.21,0.94-0.21,2.09,0,3.46c1.96,1.37,3.81,1.88,5.56,1.54c1.75-0.34,3.5-0.77,5.25-1.28
			c2.37-0.68,4.81-1.28,7.34-1.79c2.52-0.51,5.12-0.77,7.8-0.77h4.94l-1.24,2.05l0.77,3.59c0.62,0.51,1.05,0.86,1.31,1.02
			c0.26,0.17,0.54,0.43,0.85,0.77l0.77,2.31c0.41,0.34,0.8,0.94,1.16,1.79c0.36,0.86,0.59,2.14,0.7,3.84l-6.33,14.86l-2.16,1.02
			c-1.75-0.17-3.3,0.17-4.64,1.03c-0.72,0.34-1.44,0.64-2.16,0.9c-0.72,0.26-1.49,0.38-2.32,0.38c-2.06,0.68-3.79,1.2-5.18,1.54
			c-1.39,0.34-2.81,0.68-4.25,1.02c-1.85,0.34-3.66,0.81-5.41,1.41c-1.75,0.6-3.4,1.41-4.94,2.43c-1.03,0-1.75,0-2.16,0
			c-0.83,0-1.68,0.22-2.55,0.64c-0.88,0.43-1.68,0.81-2.39,1.15c-0.52,0.68-0.88,1.41-1.08,2.18c-0.21,0.77-0.41,1.58-0.62,2.43
			c-0.41,2.39-0.98,4.36-1.7,5.89v3.84c-0.83,1.71-1.31,3.03-1.47,3.97c-0.15,0.94-0.34,1.84-0.54,2.69
			c-0.21,0.51-0.36,0.99-0.46,1.41c-0.1,0.43-0.15,0.9-0.15,1.41C222.48,389.62,222.69,392.53,222.27,395.77z"/>
		<path class="st0" d="M297.52,377.84c-1.13,6.83-2.14,12-3.01,15.5c-0.88,3.5-2.19,7.13-3.94,10.89c-1.34-0.34-2.27-0.08-2.78,0.77
			c-0.52,0.85-1.08,1.62-1.7,2.31c-0.93,0.34-1.6,0.34-2.01,0c-0.41-0.34-0.77-0.73-1.08-1.15c-0.31-0.43-0.7-0.86-1.16-1.28
			c-0.46-0.42-1.16-0.64-2.09-0.64c-0.21-1.37-0.44-2.65-0.69-3.84c-0.26-1.19-0.95-1.62-2.09-1.28c0.21-1.37,0.26-2.52,0.15-3.46
			c-0.1-0.94-0.23-1.79-0.39-2.56c-0.15-0.77-0.28-1.54-0.39-2.31c-0.1-0.77-0.05-1.75,0.15-2.95c-0.52,0-0.93-0.6-1.24-1.79
			c-0.31-1.19-0.67-2.39-1.08-3.59c0.31-3.07,0.62-5.98,0.93-8.71c0.31-2.73,0.69-5.29,1.16-7.69c0.46-2.39,0.85-4.78,1.16-7.17
			c0.31-2.39,0.15-4.87-0.46-7.43c0.41,0.51,0.72,0.38,0.93-0.38c0.2-0.77,0.36-1.79,0.46-3.07c0.1-1.28,0.15-2.56,0.15-3.84
			s-0.05-2.35-0.15-3.2c1.03-4.44,1.88-9.01,2.55-13.71c0.67-4.7,1.29-9.35,1.85-13.96c0.56-4.61,1.16-9.13,1.78-13.58
			c0.62-4.44,1.44-8.54,2.47-12.3c1.13-0.34,2.39-0.13,3.78,0.64c1.39,0.77,2.24,1.75,2.55,2.95c2.68-3.42,5.05-7.56,7.11-12.43
			c2.06-4.87,4.17-9.61,6.33-14.22s4.56-8.71,7.18-12.3c2.63-3.59,5.95-5.72,9.97-6.4c2.06,2.56,4.35,5.17,6.87,7.81
			c2.52,2.65,4.61,6.11,6.26,10.38c0.82,0.68,1.52,1.41,2.09,2.18c0.57,0.77,1.26,1.58,2.09,2.43v3.07
			c1.24,1.88,2.24,4.06,3.01,6.53c0.77,2.48,1.47,5.12,2.09,7.94c0.62,2.82,1.24,5.64,1.85,8.45c0.62,2.82,1.34,5.51,2.16,8.07
			c-0.21,0.86-0.31,1.58-0.31,2.18c0,0.6,0.08,1.24,0.23,1.92c0.15,0.68,0.28,1.37,0.39,2.05c0.1,0.68,0.1,1.62,0,2.82
			c-0.31,7.52-1.78,13.58-4.4,18.19c-2.63,4.61-5.79,8.41-9.5,11.4c-3.71,2.99-7.67,5.51-11.9,7.56c-4.22,2.05-8.03,4.27-11.43,6.66
			c0,0.68,0.18,1.02,0.54,1.02c0.36,0,0.49,0.43,0.39,1.28c2.47,2.56,4.43,4.61,5.87,6.15c1.44,1.54,2.81,2.82,4.09,3.84
			c1.29,1.02,2.68,1.92,4.17,2.69c1.49,0.77,3.58,1.67,6.26,2.69c2.68,1.03,4.76,1.84,6.26,2.43c1.49,0.6,2.86,1.11,4.09,1.54
			c1.24,0.43,2.5,0.77,3.79,1.02c1.29,0.26,3.11,0.56,5.48,0.9c0.93,1.54,1.72,3.38,2.39,5.51c0.67,2.14,1.11,4.27,1.31,6.41
			c0.21,2.14,0.26,4.19,0.15,6.15c-0.1,1.97-0.46,3.55-1.08,4.74c0.1,0.51,0.33,0.73,0.7,0.64c0.36-0.08,0.75-0.04,1.16,0.13
			c-0.62,0.68-1.13,1.54-1.55,2.56c-0.41,1.02-0.83,2.05-1.24,3.07c-0.41,1.02-0.88,1.92-1.39,2.69c-0.52,0.77-1.24,1.24-2.16,1.41
			c-3.19,2.05-7.21,2.18-12.05,0.38c-4.84-1.79-10.97-5.08-18.39-9.86c-3.71-2.39-6.72-4.48-9.04-6.28
			c-2.32-1.79-4.33-3.59-6.03-5.38c-1.7-1.79-3.24-3.71-4.64-5.76C301.15,383.22,299.47,380.75,297.52,377.84z M319.61,289.97
			c-1.13,2.73-2.39,5.21-3.79,7.43c-1.39,2.22-2.73,4.48-4.02,6.79c-1.29,2.31-2.45,4.87-3.48,7.69c-1.03,2.82-1.75,6.11-2.16,9.86
			c3.6-0.68,7.36-2.35,11.28-5c3.91-2.65,7.62-5.16,11.12-7.56c-0.41-5.29-1.52-9.56-3.32-12.81
			C323.45,293.13,321.57,290.99,319.61,289.97z"/>
		<path class="st0" d="M444.45,260.25c0.1,1.2,0.13,2.09,0.08,2.69c-0.05,0.6-0.1,1.15-0.15,1.67c-0.05,0.51-0.08,1.07-0.08,1.67
			c0,0.6,0.1,1.5,0.31,2.69c-2.16,5.81-4.66,9.78-7.49,11.91c-2.84,2.14-5.9,3.67-9.19,4.61c-3.3,0.94-6.67,1.92-10.12,2.95
			c-3.45,1.03-6.88,3.25-10.28,6.66c-1.34-0.85-2.55-0.85-3.63,0c-1.08,0.86-2.65,1.11-4.71,0.77c-0.62,1.02-1.39,1.75-2.32,2.18
			c-0.93,0.43-1.85,0.9-2.78,1.41c0.41,1.54,0.59,3.12,0.54,4.74c-0.05,1.62,0.08,2.95,0.39,3.97c3.6,0.51,7.59,0.43,11.97-0.26
			c4.38-0.68,8.68-1.11,12.9-1.28c0.1,0.86,0.05,1.41-0.15,1.67c-0.21,0.26-0.26,0.73-0.15,1.41c0.72,0.86,1.44,1.92,2.16,3.2
			c0.72,1.28,1.44,2.52,2.16,3.71c0.72,1.2,1.47,2.18,2.24,2.95c0.77,0.77,1.67,1.07,2.7,0.9c0.41,1.37,0.7,2.86,0.85,4.48
			c0.16,1.62,0.02,3.29-0.38,5c-1.65,1.88-3.3,3.8-4.94,5.76c-1.65,1.97-3.37,3.71-5.18,5.25c-1.8,1.54-3.71,2.78-5.72,3.71
			c-2.01,0.94-4.25,1.33-6.72,1.15c-0.52,0-0.9,0-1.16,0c-0.26,0-0.6-0.26-1-0.77c-0.83,0.86-1.99,1.11-3.48,0.77
			c-1.49-0.34-2.65-0.08-3.48,0.77c-1.14-0.85-2.5-1.24-4.09-1.15c-1.6,0.09-3.01-0.21-4.25-0.9c-1.65,3.59-3.14,7.43-4.48,11.53
			c-1.34,4.1-2.53,8.45-3.55,13.07c3.5,0.86,6.41,1.2,8.73,1.03c2.32-0.17,4.5-0.47,6.57-0.9c2.06-0.42,4.17-0.85,6.34-1.28
			c2.16-0.42,4.89-0.55,8.19-0.38c2.06-1.88,4.51-3.11,7.34-3.71c2.83-0.6,5.43-1.58,7.8-2.95c0.82,0.51,1.55,1.41,2.16,2.69
			c0.62,1.28,1.21,2.48,1.78,3.59c0.56,1.11,1.16,2.09,1.78,2.95c0.62,0.86,1.39,1.2,2.32,1.02c0.41,0.68,0.69,1.5,0.85,2.43
			c0.16,0.94,0.28,1.84,0.39,2.69c0.1,0.86,0.28,1.58,0.54,2.18c0.26,0.6,0.7,0.81,1.31,0.64c-1.55,5.64-3.32,9.95-5.33,12.94
			c-2.01,2.99-4.3,5.25-6.88,6.79c-2.58,1.54-5.43,2.73-8.57,3.59c-3.14,0.86-6.62,1.88-10.43,3.07c-0.93,0.34-1.7,0.3-2.32-0.13
			c-0.62-0.43-1.34-0.64-2.16-0.64c-2.37,0.85-5.2,1.62-8.5,2.31c-3.3,0.68-6.64,0.94-10.04,0.77c-3.4-0.17-6.64-0.9-9.73-2.18
			c-3.09-1.28-5.62-3.54-7.57-6.79c-0.83-1.19-1.37-2.6-1.62-4.23c-0.26-1.62-0.95-2.86-2.09-3.71c-0.1-2.22-0.31-4.7-0.62-7.43
			c-0.31-2.73-0.62-5.59-0.93-8.58c-0.31-2.99-0.54-5.93-0.69-8.84c-0.15-2.9-0.08-5.55,0.23-7.94c0.31-2.56,0.95-4.87,1.93-6.92
			c0.98-2.05,1.31-4.27,1-6.66c0.52-0.17,0.82-0.64,0.93-1.41c0.1-0.77,0.51-1.07,1.23-0.9c0.62-3.08,1.29-5.98,2.01-8.71
			c0.72-2.73,1.47-5.38,2.24-7.94c0.77-2.56,1.55-5.16,2.32-7.81c0.77-2.65,1.52-5.59,2.24-8.84c-1.44-2.22-2.5-4.65-3.17-7.3
			c-0.67-2.65-1.16-5.29-1.47-7.94c-0.31-2.65-0.57-5.38-0.77-8.2c-0.21-2.82-0.57-5.68-1.08-8.58c1.03-2.56,2.29-4.65,3.78-6.28
			c1.49-1.62,3.11-2.95,4.87-3.97c1.75-1.02,3.66-1.88,5.72-2.56c2.06-0.68,4.22-1.45,6.49-2.31c4.12-2.22,7.8-3.93,11.05-5.12
			c3.24-1.19,6.44-2.18,9.58-2.95c3.14-0.77,6.41-1.49,9.81-2.18c3.4-0.68,7.26-1.71,11.59-3.07c0.93,1.54,1.8,2.31,2.63,2.31
			c0.41-1.54,0.9-2,1.47-1.41c0.57,0.6,0.8,0.13,0.7-1.41c1.03,2.91,2.34,5.34,3.94,7.3C440.71,257.22,442.49,258.88,444.45,260.25z
			"/>
	</g>
	<g>
		<g>
			<path d="M493.88,147c4.47-1.67,7.08-5.89,9.39-9.82c7.02-12.09,12.87-24.83,17.59-37.98c1.58-4.37,3.07-8.81,4.34-13.27
				c0.62-2.5,1.72-8.27-1.93-8.56c-1.9-0.01-2.74,1.59-2.47,3.33c0.1,1.73,0.44,3.44,0.93,5.11c2.15,6.66,5.1,13.07,6.78,19.9
				c2.45,9.05,3.81,18.4,3.89,27.83c-0.02,2.37-0.24,4.84-1.24,7.14c-1.37,3.45-5.24,6.47-9.18,5.38c-4.44-1.15-5.4-6.31-2.81-9.69
				c2.88-4.25,8.66-4.45,13.15-5.24c2.25-0.39,4.46-1.05,6.62-1.83c10.78-4.21,20.02-12.21,25.95-22.15c0,0,0.13,0.07,0.13,0.07
				c-6.59,12.32-18.55,22.41-32.43,25.33c-3.42,0.72-6.86,0.79-9.86,2.55c-2.55,1.42-4.59,5.28-2.74,7.8
				c2.89,3.76,8.34,1.08,9.8-2.82c0.9-1.99,1.15-4.27,1.19-6.56c0-9.26-1.12-18.56-3.28-27.61c-1.48-6.87-4.31-13.3-6.43-19.97
				c-0.67-2.93-2.74-8.87,2-9.13c4.26,0.26,3.36,6.48,2.74,9.32c-1.15,4.56-2.48,9.04-3.98,13.48
				c-4.54,13.29-10.66,26.05-18.08,37.97c-2.44,3.9-5.4,8.15-10.02,9.55C493.92,147.14,493.88,147,493.88,147L493.88,147z"/>
		</g>
		<g>
			<path d="M564.86,107.18c0.65-4.1-0.15-8.74-2.76-12.02c-2.86-3.49-7.71-3.51-10.71-0.17c-1.91,1.99-3,4.66-4.05,7.28
				c-4.21,10.54-6.73,21.76-7.25,33.09c-0.07,2.82-0.38,5.74,0.53,8.21c1.67,4.51,6.41,4.16,9.06,0.68
				c7.49-11.33,16.72-29.59,14.66-43.41c0,0,0.52,0.04,0.52,0.04c-1.22,3.63-2.31,7.31-3.22,11.03c-1.75,7.44-2.75,15.11-2.5,22.76
				c0.23,2.7-0.13,5.91,1.93,7.92c1.34,1.21,3.44,1.12,5,0.36c2.54-1.29,3.89-3.93,5.26-6.34c5.51-10,7.94-21.61,7.08-32.98
				c0,0,1.34,0.17,1.34,0.17c-2.49,7.4-4.21,15.06-5.14,22.8c-0.46,3.87-0.71,7.77-0.8,11.67c-0.42,6.05,1.16,12.41,8.27,7.64
				c10.66-8.31,16.74-22.1,16.02-35.58c0,0,1.06,0.25,1.06,0.25c-2.08,3.55-3.61,7.43-4.52,11.45c-0.91,4.03-1.22,8.19-1.47,12.35
				c-0.21,4.07-0.73,8.41,1.24,12.12c1.66,3.73,7.06,5.77,10.12,2.5c0,0,0.11,0.1,0.11,0.1c-3.15,3.52-8.8,1.5-10.67-2.36
				c-2.15-3.77-1.75-8.27-1.57-12.4c0.24-8.36,1.44-16.98,5.77-24.32c0.24-0.48,1.05-0.3,1.06,0.24
				c0.83,11.94-3.52,24.19-11.79,32.87c-2.14,2.16-4.3,4.43-7.23,5.56c-2.04,0.86-4.82,0.47-6.23-1.41
				c-2.01-2.56-1.77-6.08-1.76-9.03c0.06-3.96,0.38-7.9,0.86-11.83c0.99-7.85,2.79-15.59,5.35-23.06c0.21-0.7,1.32-0.56,1.34,0.17
				c0.81,13.45-2.65,27.62-10.95,38.36c-1.98,2.23-5.81,3.44-8.25,1.24c-2.24-2.19-1.85-5.63-2.03-8.44
				c-0.26-11.57,2.21-23.03,5.79-33.98c0.08-0.26,0.49-0.24,0.52,0.04c2.17,13.89-6.65,32.83-14.22,44.3
				c-3.21,4.26-9.23,4.46-11.29-1c-1.07-2.86-0.67-5.82-0.59-8.75c0.64-11.46,3.15-22.84,7.65-33.39c1.58-3.87,3.73-8.47,8.12-9.83
				c4.52-1.5,8.91,2.45,9.91,6.62c0.85,2.74,1.14,5.7,0.54,8.52C565.01,107.21,564.86,107.18,564.86,107.18L564.86,107.18z"/>
		</g>
		<g>
			<path d="M640.49,102.91c0.13,0.59,0.11,1.09-0.25,1.5c-0.44,0.27-0.89,0.6-0.53,1.17c0.24,0.36,0.41,0.6,0.63,0.88
				c0.15,0.26,0.18,0.58,0.64,1.06c0.04,0.04,0.05,0.11,0.01,0.15c-0.88,0.79-2.29-0.12-2.28-1.19c-0.14-0.63,0.43-1.15,0.48-1.72
				c-0.03-0.58-0.24-1.15,0.35-1.58C639.66,103.08,640.31,102.66,640.49,102.91L640.49,102.91z"/>
		</g>
		<g>
			<path d="M626.22,115.49c-0.13-2.1-2.34-3.41-4.28-3.42c-3.71,0.07-6.05,3.58-7.98,6.32c-1.37,2.13-2.65,4.38-3.62,6.72
				c-3.26,7.47-4.32,15.87-2.95,23.87c0.72,5.84,4.45,12.56,11.13,9.09c1.75-0.93,3.01-2.57,4.29-4.04
				c7.54-8.92,12.06-20.31,12.84-31.95c0,0,0.03-0.38,0.03-0.38c0.01-0.09,0,0.04,0.02,0.07c0.06,0.15,0.21,0.23,0.37,0.17
				c0.1-0.02,0.19-0.23,0.09-0.02c-0.88,1.82-1.63,3.7-2.25,5.63c-2.41,7.73-2.63,16.18-0.33,23.96c0.26,0.98,0.62,1.93,0.96,2.89
				c0.56,1.87,2.64,2.83,4.22,1.43c0.77-0.57,1.41-1.37,2.07-2.15c4-4.65,7.35-9.85,9.94-15.41c3.45-7.41,5.68-15.43,6.31-23.6
				c0.01-0.25,0.39-0.32,0.48-0.08c4.45,9.75,8.85,27.25,5.28,37.62c-1.18,3-4,6.11-7.55,5.76c-2.7-0.27-4.2-3.34-2.4-5.49
				c2.21-2.44,5.14-3.86,7.43-6.19c9.36-8.53,15.5-20.52,16.95-33.08c0.08-0.82,1.36-0.83,1.42,0.02c0,0,1.88,21.92,1.88,21.92
				c0.17,7.11,3.17,16-2.41,21.81c-1.47,1.39-3.67,2.56-5.74,1.97c-1.77-0.46-2.85-2.72-1.97-4.36c0.65-1.39,1.99-2.34,3.07-3.21
				c2.06-1.67,4.33-3.51,6.3-5.27c3.14-2.45,34.21-32.04,22.93-32.56c-0.78,0.09-1.36,0.73-1.79,1.33c-1.34,1.8-2.37,3.83-3.37,5.86
				c-4.64,8.91-11.1,35.56,2.57,39.05c3.47,0.83,7.65-1.89,7.59-5.63c0,0,0.15-0.01,0.15-0.01c0.14,3.91-4.14,6.8-7.81,6.02
				c-11.79-3-9.13-20.47-7.13-29.44c1.58-6.02,3.85-12.02,7.55-17.08c1.59-2.17,5.26-1.34,5.91,1.26c0.33,1.03-0.1,2.15-0.5,3.04
				c-2.22,5.14-5.93,9.46-9.52,13.64c-7.11,8.39-15.45,15.73-23.88,22.72c-1.56,1.45-0.63,3.52,1.39,3.23
				c9.01-2.43,5.27-15.35,5.15-22.23c0,0-1.77-21.93-1.77-21.93s1.42,0.02,1.42,0.02c-1.03,8.6-4.2,16.91-9.11,24.02
				c-2.45,3.55-5.32,6.82-8.53,9.7c-2.22,2.22-5.25,3.74-7.38,5.98c-1.38,1.57-0.22,3.82,1.75,4c3.09,0.3,5.59-2.48,6.68-5.17
				c1.58-3.92,1.37-8.31,1.13-12.47c-0.59-8.48-2.67-16.86-6.12-24.64c0,0,0.48-0.08,0.48-0.08c-1.09,12.32-5.36,24.35-12.43,34.52
				c-1.17,1.7-2.41,3.36-3.74,4.93c-1.26,1.56-3.11,3.87-5.43,2.99c-2.24-0.85-2.58-3.41-3.29-5.38c-2.46-7.95-2.4-16.65,0.04-24.61
				c0.63-1.99,1.4-3.93,2.3-5.81c0-0.03,0.21-0.48,0.57-0.6c0.68-0.31,1.49,0.33,1.38,1.01c-0.64,12.07-5.35,23.87-13.21,33.05
				c-7.33,9.59-16.11,5.49-17.4-5.67c-1.6-10.27,0.67-21.07,6.31-29.77c1.12-1.68,2.36-3.48,3.78-4.91
				c2.05-2.28,5.74-3.77,8.44-1.65c0.84,0.63,1.45,1.61,1.48,2.67L626.22,115.49L626.22,115.49z"/>
		</g>
		<g>
			<path d="M508.8,184.06c1.68-12.87-13.15-13.43-20.21-6.05c-6.77,6.97-10.27,16.73-11.74,26.2c-0.66,6.22-1.32,13.23,1.3,19.02
				c1.35,2.71,4.06,5.02,7.21,4.77c3.26-0.19,5.34-3.14,6.91-5.74c6.76-11.21,11.86-23.47,14.88-36.22
				c1.57-6.37,2.54-12.87,3.12-19.39c0,0,0.76,0.07,0.76,0.07l-3.84,40.84c-0.28,3.8-1.32,17.21,3.73,17.66
				c1.2,0.08,2.24-1.4,3.3-2.71c1.06-1.31,2.06-2.67,3.01-4.06c1.9-2.79,3.55-5.75,4.95-8.82c2.8-6.14,4.59-12.76,5.27-19.46
				c0.17-1.26-1.44-2.15-2.43-1.39c-0.22,0.15-0.5,0.49-0.78,0.79c-5.36,6.15-6,14.77-5.28,22.6c0.14,1.69,0.34,3.39,0.54,5.08
				c0.44,3.25,0.54,6.93,3.03,9.31c2.51,2.48,6.6,1.28,8.88-0.99c1.24-1.15,2.26-2.53,3.26-3.91c0.05-0.08,0.18,0.01,0.12,0.09
				c-1.88,2.81-4.12,5.9-7.68,6.59c-3.76,0.95-6.91-2.44-7.61-5.87c-1.81-10.01-3.77-21.16,1.42-30.52
				c1.37-2.16,3.33-6.09,6.45-4.47c0.99,0.51,1.63,1.7,1.52,2.81c-1.12,12.08-5.83,23.79-13.45,33.23
				c-1.88,2.59-4.39,4.74-7.37,1.99c-1.95-2.09-2.1-5.07-2.46-7.69c-0.34-3.48-0.14-6.96,0.18-10.37
				c1.42-13.62,2.98-27.19,4.47-40.79c0.02-0.21,0.21-0.37,0.42-0.35c0.21,0.02,0.36,0.21,0.34,0.42
				c-1.36,13.1-4.54,25.99-9.42,38.21c-2.44,6.11-5.32,12.05-8.58,17.78c-0.83,1.43-1.73,2.86-2.95,4.08
				c-4.1,4.39-10.71,2.03-13.04-2.98c-1.6-3.1-1.89-6.56-2.03-9.84c-0.13-3.32,0.05-6.65,0.55-9.94c1.61-9.72,5.21-19.7,12.36-26.72
				c4.68-4.47,12.98-6.98,18.4-2.43c2.53,2.29,3.3,5.98,2.62,9.22C508.94,184.19,508.79,184.15,508.8,184.06L508.8,184.06z"/>
		</g>
		<g>
			<path d="M538.74,178.85c4.45-3.47,9.72-5.59,15.11-7.08c3.54-1.14,6.95-2.72,10.56-3.65c5.38-1.5,11.04-2.27,16.62-1.97
				c0,0,0.01,0.15,0.01,0.15c-7.43,1.52-17.14,3.16-24.41,5.03c-4.45,1.3-8.38,3.86-12.69,5.52c-1.7,0.75-3.39,1.48-5.14,2.13
				C538.82,178.98,538.74,178.85,538.74,178.85L538.74,178.85z"/>
		</g>
		<g>
			<path d="M559.29,181.77c0.78,6.8,0.47,13.62-0.04,20.42c-0.11,6.81,0.55,13.62,0.34,20.43c-0.11,4.54-0.35,9.07-0.87,13.61
				c0,0-0.15,0-0.15,0c-1.22-11.35-0.14-22.69,0.19-34.04c-0.16-4.54-0.52-9.08-0.2-13.62c0.11-2.27,0.28-4.54,0.58-6.8
				C559.14,181.77,559.29,181.77,559.29,181.77L559.29,181.77z"/>
		</g>
		<g>
			<path d="M578.71,195.73c-9.24,7.77-14.37,20.19-13.1,32.19c0.67,9.03,9.74,14.68,15.81,6.09c2.34-3.21,3.64-7.08,5-10.85
				c2.61-7.43,3.95-15.91,0.56-23.29c-2.94-7.21-12.22-11.89-19.3-7.8c-3.37,1.93-5.28,5.85-5.43,9.7
				c-0.52,8.19,7.74,14.32,15.46,13.76c12.71-0.94,19.73-13.92,18.86-25.68c0,0,1.2,0.35,1.2,0.35c-4.32,6.29-7.2,13.61-8.18,21.21
				c-0.76,5.68-0.52,11.52,0.8,17.09c0.47,1.81,1.17,3.61,2.41,4.87c2.79,2.92,7.01,1.1,9.42-1.46c7.46-8.57,10.35-21.01,9.43-32.19
				c0,0,0.93,0.17,0.93,0.17c-4.1,8.04-9.12,27.5-3.95,35.41c2.97,4.12,9.16,3.44,12.83,0.59c1.97-1.42,3.61-3.28,5.13-5.22
				c6.06-7.81,10.83-16.61,14.18-25.91c2.49-6.99,4.15-14.27,4.95-21.65c0.23-2.33,0.35-5.07-1.32-6.9
				c-1.67-1.81-4.63-1.51-6.54-0.21c-2.02,1.36-3.32,3.53-4.55,5.66c-2.5,4.27-4.63,8.75-6.38,13.37c-3.5,9.25-5.47,19.07-5.8,28.95
				c-0.02,4.85-0.23,9.99,1.02,14.67c0.64,2.2,2.31,4.44,4.79,4.23c2.39-0.27,4.08-2.4,5.62-4.12c6.34-7.65,7.64-18.12,9.3-27.64
				c0,0,0.88,0.26,0.88,0.26c-3.34,7.98-5.32,17.01-4.2,25.64c1.75,8.81,9.08,9.97,13.92,2.52c4.69-7.34,6.87-16.28,6.33-24.97
				c-0.22-3.36-0.74-6.97-2.9-9.62c-2.01-2.55-5.81-3.72-8.53-1.63c-4.71,3.74-5.8,13.5-5.42,19.17
				c0.64,9.94,11.57,13.07,18.65,6.98c3.88-3.54,5.35-8.8,6.76-13.76c0.9-3.39,1.52-6.85,1.77-10.34c0,0,1.3,0.43,1.3,0.43
				c-3.99,6.2-6.49,13.35-7.29,20.68c-0.61,5.66-1.05,17.68,7.41,16.53c3.47-0.85,5.96-3.91,8.03-6.73
				c6.51-8.94,9.75-20.2,8.96-31.23c0,0,1.4,0.28,1.4,0.28c-4.19,8.01-6.22,17.02-5.45,26.03c0.13,1.41,0.09,2.9,0.72,4.21
				c1,2.4,4.09,4.23,6.26,2.2c3.01-2.96,3.14-8.42,4.19-12.36c0,0,3.78-17.85,3.78-17.85c0.07-0.52,0.83-0.67,1.1-0.23
				c5.44,7.89,8.21,17.56,7.72,27.13c-0.25,3.21-0.33,6.63-2.4,9.31c-5,5.43-10.99-0.63-6.94-6.16c1-1.35,2.31-2.34,3.59-3.26
				l15.5-10.8c2.3-1.83,9.45-6.02,11.13-8.49c1.86-2.12,1.62-6.55-1.48-7.23c-3.16-0.44-5,3.26-5.91,5.81
				c-1.56,4.44-2.65,9.04-3.27,13.7c-0.38,3.1-0.76,6.28-0.04,9.32c0.77,4.43,6.03,8.84,10.23,5.59c1.23-0.92,2.09-2.44,1.88-4
				l0.15-0.02c0.41,3.35-3.32,6.02-6.44,5.25c-1.58-0.34-2.98-1.28-4.01-2.49c-3.26-3.76-2.72-9.14-2.2-13.7
				c0.58-4.7,1.63-9.35,3.16-13.84c0.96-3.62,5.07-8.97,8.77-4.97c2.88,3.86-0.41,8.14-3.76,10.29
				c-4.8,3.38-18.16,12.82-23.16,16.33c-2.91,1.83-6.24,5.72-3.47,8.96c1.58,1.55,4.24,0.68,5.49-0.93c1.39-1.74,1.75-4.19,1.95-6.4
				c1.04-10.05-1.7-20.43-7.48-28.7c0,0,1.1-0.23,1.1-0.23s-3.68,17.87-3.68,17.87c-0.62,2.69-1.14,6.36-2.03,8.98
				c-1.87,6.15-7.87,7.57-11.04,1.51c-0.73-1.46-0.73-3.12-0.88-4.71c-0.24-3.07-0.23-6.17,0.11-9.24
				c0.66-6.16,2.69-12.11,5.49-17.58c0.3-0.66,1.39-0.44,1.4,0.29c0.26,3.79,0.07,7.61-0.54,11.36c-1.64,9.33-5.74,18.43-12.47,25.2
				c-5.35,5.18-12.14,3.68-13.94-3.75c-2.15-11.23,1.18-23.15,7.16-32.71c0.36-0.61,1.38-0.27,1.3,0.43
				c-0.26,3.59-0.9,7.14-1.82,10.6c-0.95,3.44-1.99,6.89-3.78,10.1c-5.85,11.3-23.24,10.37-24.36-3.54
				c-0.4-6.24,0.79-16.35,5.99-20.41c5.41-3.91,11.73,1.26,12.78,6.88c1.91,8.82,0.47,18.22-3.29,26.36
				c-2.21,4.65-5.84,10.86-11.88,10.03c-11.9-3.02-5.9-26.59-2.27-34.49c0.21-0.49,0.98-0.26,0.88,0.26
				c-1.73,9.65-3.1,20.24-9.61,28.02c-1.67,1.85-3.45,4.07-6.16,4.36c-6.06,0.03-6.28-7.78-6.53-12.22
				c-0.57-12.44,1.46-24.98,5.92-36.6c1.78-4.65,3.94-9.15,6.47-13.43c1.24-2.12,2.57-4.37,4.73-5.81c2.1-1.42,5.31-1.7,7.15,0.3
				c1.79,1.97,1.66,4.81,1.44,7.27c-0.77,7.42-2.41,14.75-4.88,21.79c-3.33,9.37-8.08,18.26-14.16,26.16
				c-3.54,4.94-9.8,9.88-16.16,7.12c-10.42-4.63-3.4-30.95,0.71-38.77c0.21-0.44,0.89-0.32,0.93,0.17c0.76,7.8-0.48,15.78-3.5,23.02
				c-2.38,5.27-5.23,11.46-11.28,13.23c-2.06,0.54-4.41-0.12-5.89-1.67c-2.86-3.08-3.17-7.31-3.77-11.21
				c-1.29-11.72,1.7-23.88,8.49-33.55c0.21-0.3,0.62-0.37,0.92-0.17c0.17,0.12,0.27,0.32,0.28,0.51c0.18,4.1-0.33,8.27-1.76,12.16
				c-2.72,7.81-9.88,14.27-18.35,14.75c-11.25,0.63-20.6-10.28-14.93-20.98c4.2-8.15,15.87-7.6,21.53-1.35
				c7.35,7.81,6.24,19.73,2.81,29.06c-2.31,6.7-6.85,18.73-16.04,14.77c-7.78-4.17-6.75-14.97-5.16-22.31
				C567.91,208.22,572.45,200.23,578.71,195.73L578.71,195.73z"/>
		</g>
	</g>
</g>
</svg>
